0
SECTION
2
HEADER
9
$ACADVER
1
AC1009
9
$INSUNITS
70
4
0
ENDSEC
0
SECTION
2
ENTITIES
0
LINE
8
WALLS
10
0
20
0
11
10000
21
0
0
LINE
8
WALLS
10
10000
20
0
11
10000
21
6000
0
LINE
8
WALLS
10
10000
20
6000
11
0
21
6000
0
LINE
8
WALLS
10
0
20
6000
11
0
21
0
0
LINE
8
WALLS
10
3500
20
0
11
3500
21
2500
0
LINE
8
WALLS
10
3500
20
3400
11
3500
21
6000
0
LINE
8
WALLS
10
6500
20
0
11
6500
21
1500
0
LINE
8
WALLS
10
6500
20
2400
11
6500
21
6000
0
LINE
8
WALLS
10
0
20
3000
11
1400
21
3000
0
LINE
8
WALLS
10
2300
20
3000
11
3500
21
3000
0
LINE
8
WALLS
10
6500
20
3500
11
8200
21
3500
0
LINE
8
WALLS
10
9100
20
3500
11
10000
21
3500
0
LINE
8
WALLS
10
3500
20
1200
11
6500
21
1200
0
LINE
8
DIM
10
-800
20
-400
11
10800
21
-400
0
LINE
8
DIM
10
-800
20
6400
11
10800
21
6400
0
ENDSEC
0
EOF