0
SECTION
2
HEADER
9
$INSUNITS
70
6
0
ENDSEC
0
SECTION
2
TABLES
0
TABLE
2
LAYER
70
7
0
LAYER
2
0
70
0
62
7
6
CONTINUOUS
0
LAYER
2
WALLS
70
0
62
1
6
CONTINUOUS
0
LAYER
2
DOORS
70
0
62
2
6
CONTINUOUS
0
LAYER
2
WINDOWS
70
0
62
4
6
CONTINUOUS
0
LAYER
2
COLUMNS
70
0
62
5
6
CONTINUOUS
0
LAYER
2
STAIRS
70
0
62
6
6
CONTINUOUS
0
LAYER
2
GRID
70
0
62
3
6
CONTINUOUS
0
LAYER
2
HATCH_BOUNDARY
70
0
62
8
6
CONTINUOUS
0
ENDTAB
0
ENDSEC
0
SECTION
2
ENTITIES

### OUTER WALL FOOTPRINT (40m x 25m)

0
LWPOLYLINE
8
WALLS
90
4
70
1
10
0
20
0
10
40000
20
0
10
40000
20
25000
10
0
20
25000

### INTERNAL WALL GRID

0
LINE
8
WALLS
10
10000
20
0
11
10000
21
25000
0
LINE
8
WALLS
10
20000
20
0
11
20000
21
25000
0
LINE
8
WALLS
10
30000
20
0
11
30000
21
25000
0
LINE
8
WALLS
10
0
20
8000
11
40000
21
8000
0
LINE
8
WALLS
10
0
20
16000
11
40000
21
16000

### COLUMNS (4x4 grid)

0
CIRCLE
8
COLUMNS
10
10000
20
8000
40
400
0
CIRCLE
8
COLUMNS
10
20000
20
8000
40
400
0
CIRCLE
8
COLUMNS
10
30000
20
8000
40
400
0
CIRCLE
8
COLUMNS
10
10000
20
16000
40
400
0
CIRCLE
8
COLUMNS
10
20000
20
16000
40
400
0
CIRCLE
8
COLUMNS
10
30000
20
16000
40
400

### DOORS (ARC 900mm swing)

0
ARC
8
DOORS
10
10000
20
8000
40
900
50
0
51
90
0
ARC
8
DOORS
10
20000
20
8000
40
900
50
0
51
90
0
ARC
8
DOORS
10
30000
20
8000
40
900
50
0
51
90

### WINDOWS (simple lines)

0
LINE
8
WINDOWS
10
5000
20
25000
11
8000
21
25000
0
LINE
8
WINDOWS
10
15000
20
25000
11
18000
21
25000
0
LINE
8
WINDOWS
10
25000
20
25000
11
28000
21
25000

### STAIRS (Spline curved railing)

0
SPLINE
8
STAIRS
70
8
71
3
72
8
73
4
74
0
10
5000
20
2000
10
6000
20
2500
10
7000
20
3500
10
8000
20
5000

### HATCH BOUNDARY POLYLINE

0
LWPOLYLINE
8
HATCH_BOUNDARY
90
4
70
1
10
5000
20
5000
10
35000
20
5000
10
35000
20
20000
10
5000
20
20000

### GRID LINES

0
LINE
8
GRID
10
0
20
12500
11
40000
21
12500
0
LINE
8
GRID
10
20000
20
0
11
20000
21
25000

0
ENDSEC
0
EOF