0
SECTION
2
HEADER
9
$ACADVER
1
AC1009
9
$INSUNITS
70
6
0
ENDSEC
0
SECTION
2
TABLES
0
TABLE
2
LAYER
70
4
0
LAYER
2
0
70
0
62
7
6
CONTINUOUS
0
LAYER
2
WALLS
70
0
62
3
6
CONTINUOUS
0
LAYER
2
DIM
70
0
62
1
6
CONTINUOUS
0
LAYER
2
FURN
70
0
62
2
6
CONTINUOUS
0
ENDTAB
0
ENDSEC
0
SECTION
2
ENTITIES

0
LINE
8
WALLS
10
0
20
0
11
20
21
0
0
LINE
8
WALLS
10
20
20
0
11
20
21
12
0
LINE
8
WALLS
10
20
20
12
11
0
21
12
0
LINE
8
WALLS
10
0
20
12
11
0
21
0

0
LINE
8
WALLS
10
0
20
0
11
20
21
0
0
LINE
8
WALLS
10
20
20
12
11
20
21
0

0
LINE
8
WALLS
10
5
20
0
11
5
21
3.2
0
LINE
8
WALLS
10
5
20
4.0
11
5
21
12

0
LINE
8
WALLS
10
10
20
0
11
10
21
5.5
0
LINE
8
WALLS
10
10
20
6.5
11
10
21
12

0
LINE
8
WALLS
10
15
20
0
11
15
21
2.0
0
LINE
8
WALLS
10
15
20
3.0
11
15
21
12

0
LINE
8
WALLS
10
0
20
4
11
4
21
4
0
LINE
8
WALLS
10
6
20
4
11
20
21
4

0
LINE
8
WALLS
10
0
20
8
11
9
21
8
0
LINE
8
WALLS
10
11
20
8
11
20
21
8

0
LINE
8
WALLS
10
10
20
8
11
15
21
12

0
LINE
8
WALLS
10
2
20
2
11
4
21
2
0
LINE
8
WALLS
10
4
20
2
11
4
21
2.05
0
LINE
8
WALLS
10
4
20
2.05
11
2
21
2.05
0
LINE
8
WALLS
10
2
20
2.05
11
2
21
2

0
LINE
8
WALLS
10
16
20
9
11
18
21
9
0
LINE
8
WALLS
10
18
20
9
11
18.1
21
9.2
0
LINE
8
WALLS
10
18.1
20
9.2
11
16.2
21
9.2
0
LINE
8
WALLS
10
16.2
20
9.2
11
16
21
9

0
LINE
8
DIM
10
0
20
0
11
20
21
12
0
LINE
8
DIM
10
0
20
12
11
20
21
0
0
LINE
8
DIM
10
10
20
0
11
10
21
12
0
LINE
8
DIM
10
0
20
6
11
20
21
6

0
LINE
8
FURN
10
1
20
10
11
3
21
10
0
LINE
8
FURN
10
3
20
10
11
3
21
11
0
LINE
8
FURN
10
3
20
11
11
1
21
11
0
LINE
8
FURN
10
1
20
11
11
1
21
10

0
LINE
8
FURN
10
12
20
1
11
14
21
1
0
LINE
8
FURN
10
14
20
1
11
14
21
2
0
LINE
8
FURN
10
14
20
2
11
12
21
2
0
LINE
8
FURN
10
12
20
2
11
12
21
1

0
ENDSEC
0
EOF